<?xml version="1.0" standalone="no"?>
<!DOCTYPE svg PUBLIC "-//W3C//DTD SVG 20010904//EN"
 "http://www.w3.org/TR/2001/REC-SVG-20010904/DTD/svg10.dtd">
<svg version="1.0" xmlns="http://www.w3.org/2000/svg"
 width="96.000000pt" height="96.000000pt" viewBox="0 0 96.000000 96.000000"
 preserveAspectRatio="xMidYMid meet">
<metadata>
Created by potrace 1.14, written by Peter Selinger 2001-2017
</metadata>
<g transform="translate(0.000000,96.000000) scale(0.100000,-0.100000)"
fill="#000000" stroke="none">
<path d="M187 853 c-4 -3 -7 -172 -7 -375 0 -320 2 -369 15 -374 8 -4 22 -1
29 5 11 9 19 9 35 -1 17 -10 25 -10 41 0 16 10 24 10 40 0 16 -10 24 -10 40 0
16 10 24 10 40 0 16 -10 24 -10 40 0 16 10 24 10 40 0 16 -10 24 -10 42 1 20
12 25 10 57 -26 52 -58 82 -74 148 -78 112 -7 197 65 209 177 10 92 -52 185
-137 208 l-39 11 0 225 c0 191 -2 225 -15 230 -8 4 -22 1 -29 -5 -11 -9 -19
-9 -35 1 -17 10 -25 10 -41 0 -16 -10 -24 -10 -40 0 -16 10 -24 10 -40 0 -16
-10 -24 -10 -40 0 -16 10 -24 10 -40 0 -16 -10 -24 -10 -40 0 -16 10 -24 10
-40 0 -16 -10 -24 -10 -40 0 -16 10 -24 10 -40 0 -16 -10 -24 -10 -40 0 -16
10 -24 10 -41 0 -15 -10 -24 -11 -32 -3 -12 12 -30 14 -40 4z"/>
</g>
</svg>
